<?xml version="1.0" standalone="no"?><!DOCTYPE svg PUBLIC "-//W3C//DTD SVG 1.1//EN" "http://www.w3.org/Graphics/SVG/1.1/DTD/svg11.dtd"><svg t="1688451844349" class="icon" viewBox="0 0 1024 1024" version="1.1" xmlns="http://www.w3.org/2000/svg" p-id="5828" xmlns:xlink="http://www.w3.org/1999/xlink" width="200" height="200"><path d="M952 105.5l-3.3-2.7c-9.3-6.7-22-5.9-30.2 2l-81.7 81.6-28-28-6.8-6.5c-72-64.9-182.2-62.1-250.7 6.5l-79.7 79.7c-27.1 27.1-27.1 70.9 0 98l248.3 248.2c27.1 27.1 70.9 27.1 98 0l79.7-79.7c71.1-71.1 71.1-186.4 0-257.5l-26.4-26.4 81.7-81.7c8.9-9.5 8.5-24.5-0.9-33.5z m-86.1 366.3l-79.7 79.7c-9.1 9.1-23.6 9.1-32.7 0L505.3 303.3c-9.1-9.1-9.1-23.6 0-32.7l79.7-79.7c50.9-50.9 132.6-53.3 186.4-5.5l5.8 5.5 88.7 88.8c53 53.2 53 139.1 0 192.1z" fill="#F96702" p-id="5829"></path><path d="M570.3 653l59.1-59.1c9-9.5 8.6-24.5-0.9-33.5l-3.5-2.6c-9.2-6.7-21.9-6-30.1 1.9l-59.1 59.1-91.2-91.2 59.2-59.1 2.6-3.2c6.3-9.5 4.8-22.3-3.5-30.3l-3.4-2.8c-9.2-6.7-22-5.9-30.2 2l-59.2 59.1-47.2-47.2c-27.1-27.1-70.9-27.1-98 0L171 540c-78.9 78.9-78.9 206.8 0 285.7l14 13.9-81.7 81.7-2.7 3.2c-6.3 9.6-4.8 22.3 3.5 30.3l3.4 2.8c9.2 6.7 21.9 5.9 30.1-2l81.7-81.7 12.2 12.2 7.1 6.8c79.9 72.4 202.5 69.4 278.7-6.8l93.9-93.9c27.1-27.1 27.1-70.9 0-98L570.3 653z m8.3 106.5l-93.9 93.9c-58.5 58.5-152.5 61.1-214.2 5.9l-6.2-5.9-60.5-60.4c-60.9-60.9-60.9-159.6 0-220.5l93.9-93.9c9.1-9.1 23.6-9.1 32.7 0l248.2 248.2c9.1 9 9.1 23.7 0 32.7z" fill="#00A2AE" p-id="5830"></path></svg>